<?xml version="1.0" encoding="utf-8"?>
<!-- Generator: Adobe Illustrator 24.0.3, SVG Export Plug-In . SVG Version: 6.00 Build 0)  -->
<svg version="1.1" id="Capa_1" xmlns="http://www.w3.org/2000/svg" xmlns:xlink="http://www.w3.org/1999/xlink" x="0px" y="0px"
	 viewBox="0 0 186.9 186.9" style="enable-background:new 0 0 186.9 186.9;" xml:space="preserve">
<style type="text/css">
	.st0{fill:#FFFFFF;}
</style>
<g>
	<g>
		<path class="st0" d="M184.7,173.9l-51.8-51.8c10-12.4,16.1-28.1,16.1-45.3c0-39.7-32.3-72-72-72s-72,32.3-72,72s32.3,72,72,72
			c17.1,0,32.9-6,45.3-16.1l51.8,51.8c1.5,1.5,3.4,2.2,5.4,2.2c1.9,0,3.9-0.7,5.4-2.2C187.6,181.7,187.6,176.9,184.7,173.9z
			 M76.9,133.8c-31.4,0-56.9-25.5-56.9-56.9s25.5-56.9,56.9-56.9s56.9,25.5,56.9,56.9S108.3,133.8,76.9,133.8z"/>
	</g>
</g>
</svg>
